<svg xmlns="http://www.w3.org/2000/svg" width="1700" height="2200" viewBox="0 0 1700 2200" font-family="Helvetica, Arial, sans-serif">
<rect width="100%" height="100%" fill="#ffffff"/>
<text x="100" y="120" font-size="34" font-weight="700" fill="#111827">Pressure Gauge / Backflow Preventer — Family Catalog 15</text>
<text x="100" y="160" font-size="20" fill="#4b5563">Pressure Gauge / Backflow Preventer — dimensions and ratings</text>
<text x="100" y="2140" font-size="16" fill="#9ca3af">Sterling Valve &amp; Fitting Co. — page 2</text>
<rect x="100" y="320" width="1500" height="44" fill="#f3f4f6" stroke="#111827"/>
<text x="108" y="349" font-size="16" font-weight="700" fill="#111827">CATALOG NO.</text>
<text x="558" y="349" font-size="16" font-weight="700" fill="#111827">SIZE</text>
<text x="858" y="349" font-size="16" font-weight="700" fill="#111827">RANGE (PSI)</text>
<text x="1308" y="349" font-size="16" font-weight="700" fill="#111827">WEIGHT</text>
<rect x="100" y="364" width="1500" height="40" fill="none" stroke="#d1d5db"/>
<rect x="100" y="404" width="1500" height="40" fill="none" stroke="#d1d5db"/>
<rect x="100" y="444" width="1500" height="40" fill="none" stroke="#d1d5db"/>
<rect x="100" y="484" width="1500" height="40" fill="none" stroke="#d1d5db"/>
<rect x="100" y="524" width="1500" height="40" fill="none" stroke="#d1d5db"/>
<rect x="100" y="564" width="1500" height="40" fill="none" stroke="#d1d5db"/>
<rect x="100" y="604" width="1500" height="40" fill="none" stroke="#d1d5db"/>
<rect x="100" y="644" width="1500" height="40" fill="none" stroke="#d1d5db"/>
<rect x="100" y="684" width="1500" height="40" fill="none" stroke="#d1d5db"/>
<rect x="100" y="724" width="1500" height="40" fill="none" stroke="#d1d5db"/>
<rect x="100" y="764" width="1500" height="40" fill="none" stroke="#d1d5db"/>
<rect x="100" y="804" width="1500" height="40" fill="none" stroke="#d1d5db"/>
<rect x="100" y="844" width="1500" height="40" fill="none" stroke="#d1d5db"/>
<rect x="100" y="884" width="1500" height="40" fill="none" stroke="#d1d5db"/>
<text x="108" y="392" font-size="16" fill="#1f2937">G297</text>
<text x="558" y="392" font-size="16" fill="#1f2937">3&quot;</text>
<text x="858" y="392" font-size="16" fill="#1f2937">125 WOG</text>
<text x="1308" y="392" font-size="16" fill="#1f2937">11.65</text>
<text x="108" y="432" font-size="16" fill="#1f2937">G548</text>
<text x="558" y="432" font-size="16" fill="#1f2937">3/8&quot;</text>
<text x="858" y="432" font-size="16" fill="#1f2937">200 WOG</text>
<text x="1308" y="432" font-size="16" fill="#1f2937">7.66</text>
<text x="108" y="472" font-size="16" fill="#1f2937">G142</text>
<text x="558" y="472" font-size="16" fill="#1f2937">3/4&quot;</text>
<text x="858" y="472" font-size="16" fill="#1f2937">150 WOG</text>
<text x="1308" y="472" font-size="16" fill="#1f2937">10.28</text>
<text x="108" y="512" font-size="16" fill="#1f2937">G975</text>
<text x="558" y="512" font-size="16" fill="#1f2937">3&quot;</text>
<text x="858" y="512" font-size="16" fill="#1f2937">200 WOG</text>
<text x="1308" y="512" font-size="16" fill="#1f2937">10.59</text>
<text x="108" y="552" font-size="16" fill="#1f2937">G292</text>
<text x="558" y="552" font-size="16" fill="#1f2937">4&quot;</text>
<text x="858" y="552" font-size="16" fill="#1f2937">150 WOG</text>
<text x="1308" y="552" font-size="16" fill="#1f2937">8.33</text>
<text x="108" y="592" font-size="16" fill="#1f2937">G250</text>
<text x="558" y="592" font-size="16" fill="#1f2937">2-1/2&quot;</text>
<text x="858" y="592" font-size="16" fill="#1f2937">125 WOG</text>
<text x="1308" y="592" font-size="16" fill="#1f2937">1.55</text>
<text x="108" y="632" font-size="16" fill="#1f2937">G761</text>
<text x="558" y="632" font-size="16" fill="#1f2937">1/8&quot;</text>
<text x="858" y="632" font-size="16" fill="#1f2937">200 WOG</text>
<text x="1308" y="632" font-size="16" fill="#1f2937">11.22</text>
<text x="108" y="672" font-size="16" fill="#1f2937">G461</text>
<text x="558" y="672" font-size="16" fill="#1f2937">2-1/2&quot;</text>
<text x="858" y="672" font-size="16" fill="#1f2937">150 WOG</text>
<text x="1308" y="672" font-size="16" fill="#1f2937">9.89</text>
<text x="108" y="712" font-size="16" fill="#1f2937">G193</text>
<text x="558" y="712" font-size="16" fill="#1f2937">1&quot;</text>
<text x="858" y="712" font-size="16" fill="#1f2937">125 WOG</text>
<text x="1308" y="712" font-size="16" fill="#1f2937">11.91</text>
<text x="108" y="752" font-size="16" fill="#1f2937">G684</text>
<text x="558" y="752" font-size="16" fill="#1f2937">2&quot;</text>
<text x="858" y="752" font-size="16" fill="#1f2937">400 WOG</text>
<text x="1308" y="752" font-size="16" fill="#1f2937">5.33</text>
<text x="108" y="792" font-size="16" fill="#1f2937">G660</text>
<text x="558" y="792" font-size="16" fill="#1f2937">1-1/4&quot;</text>
<text x="858" y="792" font-size="16" fill="#1f2937">600 WOG</text>
<text x="1308" y="792" font-size="16" fill="#1f2937">2.75</text>
<text x="108" y="832" font-size="16" fill="#1f2937">G417</text>
<text x="558" y="832" font-size="16" fill="#1f2937">1/8&quot;</text>
<text x="858" y="832" font-size="16" fill="#1f2937">200 WOG</text>
<text x="1308" y="832" font-size="16" fill="#1f2937">2.56</text>
<text x="108" y="872" font-size="16" fill="#1f2937">G973</text>
<text x="558" y="872" font-size="16" fill="#1f2937">2-1/2&quot;</text>
<text x="858" y="872" font-size="16" fill="#1f2937">300 WOG</text>
<text x="1308" y="872" font-size="16" fill="#1f2937">4.86</text>
<text x="108" y="912" font-size="16" fill="#1f2937">G552</text>
<text x="558" y="912" font-size="16" fill="#1f2937">1-1/2&quot;</text>
<text x="858" y="912" font-size="16" fill="#1f2937">125 WOG</text>
<text x="1308" y="912" font-size="16" fill="#1f2937">4.33</text>
<line x1="550" y1="320" x2="550" y2="924" stroke="#d1d5db"/>
<line x1="850" y1="320" x2="850" y2="924" stroke="#d1d5db"/>
<line x1="1300" y1="320" x2="1300" y2="924" stroke="#d1d5db"/>
<rect x="100" y="320" width="1500" height="604" fill="none" stroke="#111827" stroke-width="2"/>
</svg>