<svg xmlns="http://www.w3.org/2000/svg" width="1700" height="2200" viewBox="0 0 1700 2200" font-family="Helvetica, Arial, sans-serif">
<rect width="100%" height="100%" fill="#ffffff"/>
<text x="100" y="120" font-size="34" font-weight="700" fill="#111827">Pressure Gauge / Backflow Preventer — Family Catalog 13</text>
<text x="100" y="160" font-size="20" fill="#4b5563">Pressure Gauge / Backflow Preventer — dimensions and ratings</text>
<text x="100" y="2140" font-size="16" fill="#9ca3af">Cascade Brass Works — page 2</text>
<rect x="100" y="320" width="1500" height="44" fill="#f3f4f6" stroke="#111827"/>
<text x="108" y="349" font-size="16" font-weight="700" fill="#111827">CATALOG NO.</text>
<text x="558" y="349" font-size="16" font-weight="700" fill="#111827">SIZE</text>
<text x="858" y="349" font-size="16" font-weight="700" fill="#111827">RANGE (PSI)</text>
<text x="1308" y="349" font-size="16" font-weight="700" fill="#111827">WEIGHT</text>
<rect x="100" y="364" width="1500" height="40" fill="none" stroke="#d1d5db"/>
<rect x="100" y="404" width="1500" height="40" fill="none" stroke="#d1d5db"/>
<rect x="100" y="444" width="1500" height="40" fill="none" stroke="#d1d5db"/>
<rect x="100" y="484" width="1500" height="40" fill="none" stroke="#d1d5db"/>
<rect x="100" y="524" width="1500" height="40" fill="none" stroke="#d1d5db"/>
<rect x="100" y="564" width="1500" height="40" fill="none" stroke="#d1d5db"/>
<rect x="100" y="604" width="1500" height="40" fill="none" stroke="#d1d5db"/>
<rect x="100" y="644" width="1500" height="40" fill="none" stroke="#d1d5db"/>
<rect x="100" y="684" width="1500" height="40" fill="none" stroke="#d1d5db"/>
<rect x="100" y="724" width="1500" height="40" fill="none" stroke="#d1d5db"/>
<rect x="100" y="764" width="1500" height="40" fill="none" stroke="#d1d5db"/>
<rect x="100" y="804" width="1500" height="40" fill="none" stroke="#d1d5db"/>
<rect x="100" y="844" width="1500" height="40" fill="none" stroke="#d1d5db"/>
<rect x="100" y="884" width="1500" height="40" fill="none" stroke="#d1d5db"/>
<rect x="100" y="924" width="1500" height="40" fill="none" stroke="#d1d5db"/>
<rect x="100" y="964" width="1500" height="40" fill="none" stroke="#d1d5db"/>
<text x="108" y="392" font-size="16" fill="#1f2937">G898</text>
<text x="558" y="392" font-size="16" fill="#1f2937">4&quot;</text>
<text x="858" y="392" font-size="16" fill="#1f2937">200 WOG</text>
<text x="1308" y="392" font-size="16" fill="#1f2937">2.78</text>
<text x="108" y="432" font-size="16" fill="#1f2937">G419</text>
<text x="558" y="432" font-size="16" fill="#1f2937">2-1/2&quot;</text>
<text x="858" y="432" font-size="16" fill="#1f2937">150 WOG</text>
<text x="1308" y="432" font-size="16" fill="#1f2937">4.88</text>
<text x="108" y="472" font-size="16" fill="#1f2937">G827</text>
<text x="558" y="472" font-size="16" fill="#1f2937">1/2&quot;</text>
<text x="858" y="472" font-size="16" fill="#1f2937">150 WOG</text>
<text x="1308" y="472" font-size="16" fill="#1f2937">10.38</text>
<text x="108" y="512" font-size="16" fill="#1f2937">G301</text>
<text x="558" y="512" font-size="16" fill="#1f2937">1/8&quot;</text>
<text x="858" y="512" font-size="16" fill="#1f2937">200 WOG</text>
<text x="1308" y="512" font-size="16" fill="#1f2937">11.71</text>
<text x="108" y="552" font-size="16" fill="#1f2937">G172</text>
<text x="558" y="552" font-size="16" fill="#1f2937">1/2&quot;</text>
<text x="858" y="552" font-size="16" fill="#1f2937">200 WOG</text>
<text x="1308" y="552" font-size="16" fill="#1f2937">0.48</text>
<text x="108" y="592" font-size="16" fill="#1f2937">G568</text>
<text x="558" y="592" font-size="16" fill="#1f2937">4&quot;</text>
<text x="858" y="592" font-size="16" fill="#1f2937">300 WOG</text>
<text x="1308" y="592" font-size="16" fill="#1f2937">2.29</text>
<text x="108" y="632" font-size="16" fill="#1f2937">G150</text>
<text x="558" y="632" font-size="16" fill="#1f2937">3&quot;</text>
<text x="858" y="632" font-size="16" fill="#1f2937">400 WOG</text>
<text x="1308" y="632" font-size="16" fill="#1f2937">10.03</text>
<text x="108" y="672" font-size="16" fill="#1f2937">G790</text>
<text x="558" y="672" font-size="16" fill="#1f2937">1/2&quot;</text>
<text x="858" y="672" font-size="16" fill="#1f2937">200 WOG</text>
<text x="1308" y="672" font-size="16" fill="#1f2937">6.45</text>
<text x="108" y="712" font-size="16" fill="#1f2937">G228</text>
<text x="558" y="712" font-size="16" fill="#1f2937">1/4&quot;</text>
<text x="858" y="712" font-size="16" fill="#1f2937">150 WOG</text>
<text x="1308" y="712" font-size="16" fill="#1f2937">6.95</text>
<text x="108" y="752" font-size="16" fill="#1f2937">G158</text>
<text x="558" y="752" font-size="16" fill="#1f2937">2-1/2&quot;</text>
<text x="858" y="752" font-size="16" fill="#1f2937">150 WOG</text>
<text x="1308" y="752" font-size="16" fill="#1f2937">3.88</text>
<text x="108" y="792" font-size="16" fill="#1f2937">G174</text>
<text x="558" y="792" font-size="16" fill="#1f2937">1/8&quot;</text>
<text x="858" y="792" font-size="16" fill="#1f2937">200 WOG</text>
<text x="1308" y="792" font-size="16" fill="#1f2937">11.27</text>
<text x="108" y="832" font-size="16" fill="#1f2937">G391</text>
<text x="558" y="832" font-size="16" fill="#1f2937">1/4&quot;</text>
<text x="858" y="832" font-size="16" fill="#1f2937">200 WOG</text>
<text x="1308" y="832" font-size="16" fill="#1f2937">7.81</text>
<text x="108" y="872" font-size="16" fill="#1f2937">G610</text>
<text x="558" y="872" font-size="16" fill="#1f2937">2-1/2&quot;</text>
<text x="858" y="872" font-size="16" fill="#1f2937">125 WOG</text>
<text x="1308" y="872" font-size="16" fill="#1f2937">10.28</text>
<text x="108" y="912" font-size="16" fill="#1f2937">G373</text>
<text x="558" y="912" font-size="16" fill="#1f2937">3&quot;</text>
<text x="858" y="912" font-size="16" fill="#1f2937">200 WOG</text>
<text x="1308" y="912" font-size="16" fill="#1f2937">5.46</text>
<text x="108" y="952" font-size="16" fill="#1f2937">G102</text>
<text x="558" y="952" font-size="16" fill="#1f2937">3&quot;</text>
<text x="858" y="952" font-size="16" fill="#1f2937">125 WOG</text>
<text x="1308" y="952" font-size="16" fill="#1f2937">11.95</text>
<text x="108" y="992" font-size="16" fill="#1f2937">G910</text>
<text x="558" y="992" font-size="16" fill="#1f2937">1-1/2&quot;</text>
<text x="858" y="992" font-size="16" fill="#1f2937">600 WOG</text>
<text x="1308" y="992" font-size="16" fill="#1f2937">6.06</text>
<line x1="550" y1="320" x2="550" y2="1004" stroke="#d1d5db"/>
<line x1="850" y1="320" x2="850" y2="1004" stroke="#d1d5db"/>
<line x1="1300" y1="320" x2="1300" y2="1004" stroke="#d1d5db"/>
<rect x="100" y="320" width="1500" height="684" fill="none" stroke="#111827" stroke-width="2"/>
</svg>